{"title":"Red.Mist.2008.DVDRIP.XviD-ZEKTORM","uid":5035305,"size":735300751,"categoryP":"video","categoryS":"movies","magnet":"?xt=urn:btih:2f5d37df54ef2e7dd3e2764239e7bda4bb133d73&amp;dn=Red.Mist.2008.DVDRIP.XviD-ZEKTORM&amp;tr=udp%3A%2F%2Ftracker.openbittorrent.com%3A80&amp;tr=udp%3A%2F%2Fopen.demonii.com%3A1337&amp;tr=udp%3A%2F%2Ftracker.coppersurfer.tk%3A6969&amp;tr=udp%3A%2F%2Fexodus.desync.com%3A6969","seeders":0,"leechers":1,"uploader":"blowley","files":3,"time":1249084925,"description":"Title                            : Freakdog\nAlso Known As                    : Red Mist\nYear                             : 2008\nGenre                            : Horror | Thriller\niMDB URL                         : http://www.imdb.com/title/tt1185264/\nAwards                           : 1 win\n\nComplete name                    : RM-ZEKTORM.avi\nFormat                           : AVI\nFile size                        : 701 MiB\nDuration                         : 1h 25mn\nOverall bit rate                 : 1148 Kbps\nSource                           : DVD NTSC\n\nVideo\nFormat                           : MPEG-4 Visual\nFormat profile                   : Streaming Video@L1\nCodec ID                         : XVID\nCodec ID/Hint                    : XviD\nDuration                         : 1h 25mn\nBit rate                         : 1016 Kbps\nWidth                            : 720 pixels\nHeight                           : 416 pixels\nDisplay aspect ratio             : 16/9\nFrame rate                       : 23.976 fps\nResolution                       : 24 bits\nColorimetry                      : 4:2:0\nScan type                        : Progressive\nBits/(Pixel*Frame)               : 0.142\nStream size                      : 621 MiB (89%)\nWriting library                  : XviD\n\nAudio\nFormat                           : MPEG Audio\nFormat version                   : Version 1\nFormat profile                   : Layer 3\nCodec ID                         : 55\nCodec ID/Hint                    : MP3\nDuration                         : 1h 25mn\nBit rate mode                    : Variable\nBit rate                         : 119 Kbps\nMinimum bit rate                 : 128 Kbps\nChannel(s)                       : 2 channels\nSampling rate                    : 48.0 KHz\nResolution                       : 16 bits\nStream size                      : 72.9 MiB (10%)\nWriting library                  : LAME3.98r\nEncoding settings                : ABR\n","torrent":{"xt":"urn:btih:2f5d37df54ef2e7dd3e2764239e7bda4bb133d73","amp;dn":"Red.Mist.2008.DVDRIP.XviD-ZEKTORM","amp;tr":["udp%3A%2F%2Ftracker.openbittorrent.com%3A80","udp%3A%2F%2Fopen.demonii.com%3A1337","udp%3A%2F%2Ftracker.coppersurfer.tk%3A6969","udp%3A%2F%2Fexodus.desync.com%3A6969"],"infoHash":"2f5d37df54ef2e7dd3e2764239e7bda4bb133d73","infoHashBuffer":{"type":"Buffer","data":[47,93,55,223,84,239,46,125,211,226,118,66,57,231,189,164,187,19,61,115]},"announce":[],"urlList":[]}}